<?xml version="1.0" encoding="UTF-8" standalone="no"?>
<!-- Created with Inkscape (http://www.inkscape.org/) -->
<svg
   xmlns:dc="http://purl.org/dc/elements/1.1/"
   xmlns:cc="http://web.resource.org/cc/"
   xmlns:rdf="http://www.w3.org/1999/02/22-rdf-syntax-ns#"
   xmlns:svg="http://www.w3.org/2000/svg"
   xmlns="http://www.w3.org/2000/svg"
   xmlns:sodipodi="http://inkscape.sourceforge.net/DTD/sodipodi-0.dtd"
   xmlns:inkscape="http://www.inkscape.org/namespaces/inkscape"
   width="128"
   height="128"
   id="svg2"
   sodipodi:version="0.32"
   inkscape:version="0.43"
   version="1.0"
   sodipodi:docbase="/Users/johndaigle/dev/alesimulator/trunk/resources/icon"
   sodipodi:docname="ales.svg"
   inkscape:export-filename="/Users/johndaigle/dev/alesimulator/trunk/resources/icon/ales.png"
   inkscape:export-xdpi="90"
   inkscape:export-ydpi="90">
  <defs
     id="defs4" />
  <sodipodi:namedview
     id="base"
     pagecolor="#ffffff"
     bordercolor="#666666"
     borderopacity="1.0"
     inkscape:pageopacity="0.0"
     inkscape:pageshadow="2"
     inkscape:zoom="3.1546721"
     inkscape:cx="63.65625"
     inkscape:cy="63.273429"
     inkscape:document-units="px"
     inkscape:current-layer="layer1"
     showgrid="true"
     inkscape:window-width="739"
     inkscape:window-height="537"
     inkscape:window-x="20"
     inkscape:window-y="42" />
  <metadata
     id="metadata7">
    <rdf:RDF>
      <cc:Work
         rdf:about="">
        <dc:format>image/svg+xml</dc:format>
        <dc:type
           rdf:resource="http://purl.org/dc/dcmitype/StillImage" />
        <cc:license
           rdf:resource="http://creativecommons.org/licenses/by-nc-sa/2.0/" />
        <dc:description>The icon is mean</dc:description>
        <dc:title>alesicon</dc:title>
        <dc:date>3/24/05</dc:date>
        <dc:creator>
          <cc:Agent>
            <dc:title>John Daigle</dc:title>
          </cc:Agent>
        </dc:creator>
        <dc:rights>
          <cc:Agent>
            <dc:title>some rights reserved</dc:title>
          </cc:Agent>
        </dc:rights>
      </cc:Work>
      <cc:License
         rdf:about="http://creativecommons.org/licenses/by-nc-sa/2.0/">
        <cc:permits
           rdf:resource="http://web.resource.org/cc/Reproduction" />
        <cc:permits
           rdf:resource="http://web.resource.org/cc/Distribution" />
        <cc:requires
           rdf:resource="http://web.resource.org/cc/Notice" />
        <cc:requires
           rdf:resource="http://web.resource.org/cc/Attribution" />
        <cc:prohibits
           rdf:resource="http://web.resource.org/cc/CommercialUse" />
        <cc:permits
           rdf:resource="http://web.resource.org/cc/DerivativeWorks" />
        <cc:requires
           rdf:resource="http://web.resource.org/cc/ShareAlike" />
      </cc:License>
    </rdf:RDF>
  </metadata>
  <g
     inkscape:label="Layer 1"
     inkscape:groupmode="layer"
     id="layer1">
    <path
       style="font-size:12px;font-style:normal;font-weight:normal;line-height:100%;fill:#2f661c;fill-opacity:1;stroke:none;stroke-width:1px;stroke-linecap:butt;stroke-linejoin:miter;stroke-opacity:1;font-family:Bitstream Vera Sans"
       d="M 54.25 20 C 43.821269 20.44879 34.732702 24.873452 27 33.1875 C 21.892051 38.679542 18.381571 44.732213 16.46875 51.375 C 17.471081 50.8565 18.553814 50.357586 19.6875 49.875 C 26.979959 46.770794 36.057762 44.821876 46.9375 44.03125 C 47.280041 41.269277 48.101972 39.026717 49.40625 37.3125 C 51.167828 34.997311 53.665911 33.843816 56.9375 33.84375 C 59.5547 33.843814 61.615008 34.337182 63.125 35.34375 C 64.634905 36.300108 66.07851 38.05815 67.4375 40.625 C 68.124818 41.910058 68.79661 42.957165 69.46875 43.78125 C 71.655804 43.826616 74.098964 43.871934 76.8125 43.9375 C 77.780122 43.960716 78.728981 44.010566 79.65625 44.03125 C 80.083378 43.361855 80.33934 42.589134 80.4375 41.71875 C 80.783474 42.468214 81.13606 43.252184 81.46875 44.0625 C 83.5615 44.10667 85.562661 44.125758 87.4375 44.15625 C 85.096854 37.167612 81.786979 31.707322 77.5 27.75 C 71.969529 22.588372 64.818395 20.000088 56.03125 20 C 55.681758 20.000003 55.346552 19.991416 55 20 C 54.832139 20.004158 54.667176 19.99382 54.5 20 C 54.417718 20.003042 54.332116 19.996466 54.25 20 z M 87.4375 44.15625 C 87.992963 45.814738 88.492546 47.576483 88.9375 49.40625 C 92.631905 49.591136 95.282937 49.709471 96.875 49.78125 C 98.962265 49.842082 100.66405 49.875041 101.96875 49.875 C 108.29593 49.875042 112.64888 49.311552 115.0625 48.15625 C 117.4759 47.001034 118.80421 44.883939 119 41.84375 L 114.59375 41.84375 C 114.39788 42.664638 112.95557 43.29234 110.28125 43.6875 C 107.67194 44.082759 103.69249 44.281293 98.34375 44.28125 C 95.246351 44.281274 91.618689 44.224253 87.4375 44.15625 z M 88.9375 49.40625 C 87.939362 49.356298 86.870347 49.308208 85.71875 49.25 C 86.905162 49.531333 88.034891 49.816582 89.125 50.125 C 89.068088 49.880002 88.996348 49.64825 88.9375 49.40625 z M 89.125 50.125 C 89.189673 50.403407 89.250329 50.686471 89.3125 50.96875 C 91.586195 61.29211 94.504577 73.062264 96.59375 78.53125 C 96.801684 79.075573 97.007948 79.607595 97.21875 80.125 C 104.37038 76.334374 107.93739 71.672324 107.9375 66.125 C 107.93738 62.264034 106.06173 58.921977 102.34375 56.125 C 99.273568 53.748787 94.867418 51.749666 89.125 50.125 z M 97.21875 80.125 C 96.061266 80.738509 94.782319 81.307508 93.4375 81.875 C 92.579012 82.237263 91.718442 82.607452 90.8125 82.9375 C 92.613009 90.233434 95.332672 97.521117 100.375 104.0625 C 102.89603 107.33303 106.16617 109.03125 110.40625 109.03125 C 114.40031 109.03125 117.40851 107.34846 119.375 103.96875 C 121.34124 100.52762 122.31238 95.317695 122.3125 88.3125 L 122.3125 86.28125 L 118.71875 86.28125 C 118.34995 88.923575 117.44446 91.027343 116.03125 92.625 C 114.67926 94.161234 112.99647 94.937514 110.96875 94.9375 C 108.26489 94.937512 105.70891 93.578769 103.3125 90.875 C 101.15444 88.385031 99.125944 84.806126 97.21875 80.125 z M 90.8125 82.9375 C 89.613397 78.078553 88.789486 73.225022 87.96875 68.59375 C 87.970093 68.795934 87.968746 69.013006 87.96875 69.21875 C 87.968626 74.599839 85.54568 78.605927 80.71875 81.28125 C 75.956873 83.926183 68.747698 85.250001 59.09375 85.25 C 54.620373 85.25 50.535607 84.845127 46.8125 84.03125 C 47.075513 85.379479 47.470459 86.64686 48 87.8125 C 50.418033 87.93726 52.920155 88 55.5 88 C 63.681515 88 71.019979 87.425143 77.5625 86.3125 C 78.41012 84.946616 79.207858 83.438263 79.96875 81.78125 L 84.1875 83.8125 C 84.008233 84.248356 83.812907 84.673275 83.625 85.09375 C 86.165554 84.473068 88.564208 83.756587 90.8125 82.9375 z M 83.625 85.09375 C 81.693511 85.565631 79.662917 85.955296 77.5625 86.3125 C 75.886973 89.012503 74.036614 91.147865 72.03125 92.71875 C 69.061639 95.034013 65.545572 96.187501 61.46875 96.1875 C 56.938875 96.1875 53.299458 94.67614 50.53125 91.65625 C 49.497164 90.507279 48.643675 89.229374 48 87.8125 C 36.6007 87.224346 26.990621 85.235898 19.1875 81.875 C 18.596352 81.620388 18.022951 81.388163 17.46875 81.125 C 19.364463 86.570501 22.269887 91.458067 26.15625 95.78125 C 21.883009 99.424257 19.146086 102.67281 17.96875 105.5 C 16.781694 108.45505 16.917147 111.71786 18.34375 115.3125 C 19.983217 119.4435 23.01307 122.13115 27.46875 123.34375 C 31.999282 124.58854 37.125521 124.06939 42.8125 121.8125 C 43.831798 121.40787 45.287559 120.7211 47.1875 119.71875 C 47.294749 119.6761 47.392647 119.63627 47.5 119.59375 L 45.9375 115.625 C 42.82657 116.54903 40.104407 116.53427 37.78125 115.53125 C 35.532923 114.56044 33.867112 112.70484 32.78125 109.96875 C 31.580366 106.94287 31.458742 104.11672 32.4375 101.5 C 39.301792 106.5331 47.361966 109.03125 56.59375 109.03125 C 64.459155 109.03125 71.286231 107.15463 77.0625 103.40625 C 81.097849 100.7876 80.908805 94.893276 79.03125 93.59375 C 79.0072 93.577727 78.962091 93.545764 78.9375 93.53125 C 78.84668 93.479902 78.722725 93.43615 78.625 93.40625 C 78.604887 93.400549 78.586421 93.38284 78.5625 93.375 C 80.53858 91.070895 82.194525 88.294692 83.625 85.09375 z M 17.46875 81.125 C 15.656731 75.919911 14.75 70.20352 14.75 63.96875 C 14.75 59.567487 15.321057 55.360672 16.46875 51.375 C 8.8202586 55.331524 5 60.32723 5 66.375 C 5 72.246305 9.1557366 77.177555 17.46875 81.125 z M 46.8125 84.03125 C 46.554932 82.710932 46.437493 81.309015 46.4375 79.8125 C 46.437478 75.383353 47.34429 71.891603 49.15625 69.375 C 51.018492 66.808115 53.559998 65.531281 56.78125 65.53125 C 58.08984 65.531282 59.847877 66.012483 62.0625 66.96875 C 64.327384 67.874751 66.073254 68.343778 67.28125 68.34375 C 68.891819 68.343781 70.144315 67.918171 71 67.0625 C 71.855589 66.2069 72.281205 64.954393 72.28125 63.34375 C 72.281208 61.984835 71.812163 60.886924 70.90625 60.03125 C 70.000228 59.17565 68.791158 58.750031 67.28125 58.75 C 66.123575 58.750032 64.365544 59.107901 62 59.8125 C 59.684714 60.466848 57.914512 60.781294 56.65625 60.78125 C 53.636334 60.781293 51.218166 59.572211 49.40625 57.15625 C 47.644628 54.69005 46.749977 51.352907 46.75 47.125 C 46.749999 46.915812 46.745624 46.704496 46.75 46.5 C 41.057098 47.09285 36.404026 48.435489 32.78125 50.5625 C 27.758533 53.511479 25.249958 57.681453 25.25 63.0625 C 25.249959 69.629258 28.394178 74.959145 34.65625 79.09375 C 38.12972 81.370302 42.174945 83.017473 46.8125 84.03125 z M 46.75 46.5 C 48.949833 46.270913 51.303556 46.125011 53.8125 46.125 C 64.118777 46.125042 72.396813 48.24212 78.59375 52.4375 C 82.614167 55.111603 85.342117 58.36676 86.78125 62.21875 C 85.247231 55.04554 83.492963 48.992764 81.46875 44.0625 C 80.872821 44.049922 80.269849 44.044937 79.65625 44.03125 C 79.447653 44.358164 79.195611 44.661919 78.90625 44.9375 C 77.899565 45.89385 76.567144 46.375053 74.90625 46.375 C 73.295585 46.375055 71.950991 45.961609 70.84375 45.15625 C 70.393888 44.808666 69.928635 44.345098 69.46875 43.78125 C 64.558248 43.679392 60.975201 43.625028 58.71875 43.625 C 54.582042 43.625011 50.655314 43.761078 46.9375 44.03125 C 46.84028 44.815154 46.768586 45.631514 46.75 46.5 z M 57.625 25.8125 C 57.701118 25.807766 57.767285 25.816471 57.84375 25.8125 C 57.961201 25.806401 58.069216 25.816816 58.1875 25.8125 C 58.477962 25.801902 58.798506 25.812503 59.09375 25.8125 C 65.669816 25.812579 71.064863 28.338928 75.3125 33.375 C 74.854287 33.095059 74.362787 32.796677 73.84375 32.53125 C 69.464853 30.216061 64.079572 29.062575 57.6875 29.0625 C 52.955134 29.062549 48.818381 29.769594 45.25 31.1875 C 48.713698 27.935708 52.829585 26.110745 57.625 25.8125 z M 35.125 54.5625 C 35.59627 55.382201 36.13952 56.188829 36.78125 56.9375 C 39.197146 59.756101 42.688898 61.828586 47.21875 63.1875 C 42.386908 64.697492 38.660652 67.047889 36.09375 70.21875 C 35.632507 70.779479 35.222113 71.364145 34.84375 71.96875 C 34.665006 69.5542 34.562495 67.019755 34.5625 64.34375 C 34.562492 60.868546 34.750381 57.610327 35.125 54.5625 z M 86.8125 62.375 C 87.204748 64.219224 87.590611 66.118124 87.9375 68.0625 C 87.836337 66.03475 87.459751 64.153533 86.8125 62.375 z M 73.625 97.78125 C 69.76895 101.87318 64.893636 103.96877 58.90625 103.96875 C 54.818908 103.96876 51.215734 103.07836 48.125 101.28125 C 50.840556 102.02577 53.829587 102.375 57.09375 102.375 C 63.68715 102.375 69.195778 100.85147 73.625 97.78125 z M 29.53125 99.125 C 29.635886 99.2176 29.70725 99.314948 29.8125 99.40625 C 29.715925 99.321857 29.627315 99.210493 29.53125 99.125 z M 30 99.5625 C 30.062038 99.615703 30.12525 99.665994 30.1875 99.71875 C 30.126101 99.666338 30.061197 99.615358 30 99.5625 z M 30.375 99.875 C 30.437154 99.927065 30.500136 99.979628 30.5625 100.03125 C 30.500701 99.97974 30.436599 99.926962 30.375 99.875 z M 30.75 100.1875 C 30.874228 100.28912 30.999945 100.36888 31.125 100.46875 C 31.000217 100.36849 30.873994 100.28961 30.75 100.1875 z "
       id="text1315" />
    <path
       style="font-size:12px;font-style:normal;font-weight:normal;line-height:100%;fill:#2f661c;fill-opacity:1;stroke:none;stroke-width:1px;stroke-linecap:butt;stroke-linejoin:miter;stroke-opacity:1;font-family:Bitstream Vera Sans"
       d="M 98,5.46875 C 95.143299,5.5925579 92.118265,6.3065895 88.875,7.59375 C 88.606648,7.7002372 88.16251,7.8996688 87.59375,8.1875 C 87.078443,8.4541035 86.656711,8.6634933 86.28125,8.8125 L 87.5,11.9375 C 90.524766,11.109652 93.09981,11.354514 95.21875,12.625 C 97.412427,13.927892 99.199688,16.28515 100.5625,19.71875 C 101.92509,23.152383 102.10753,26.218563 101.125,28.90625 C 100.16354,31.647616 97.654808,34.775632 93.59375,38.3125 L 87.3125,43.78125 C 88.009606,45.81806 88.62741,47.982689 89.15625,50.28125 L 98.875,42 C 106.84649,35.172385 111.70306,30.001275 113.40625,26.46875 C 115.16285,22.914948 115.18195,19.019637 113.5,14.78125 C 111.75392,10.381952 108.6231,7.5073494 104.125,6.1875 C 102.19212,5.6204095 100.15231,5.37547 98,5.46875 z "
       id="path5883" />
  </g>
</svg>
